<svg version="1" xmlns="http://www.w3.org/2000/svg" width="2134.667" height="2134.667" viewBox="0 0 1601.000000 1601.000000"><path d="M101.5 65.5c.3 17.6.8 35.8 1 40.5.5 10.9 1.5 27.8 2 35.5 1.6 22.8 1.7 24 3 36.5.3 2.5.7 7 1 10 .3 3 .7 7.1 1 9 .2 1.9.7 6 1 9 .7 6.4 5.3 38.3 6 42 .3 1.4.8 3.8 1 5.5.8 4.3 2.4 13.5 3.1 16.9.3 1.6.7 3.3 1 3.8.3.4.1.8-.4.8-1 0-19.5-18.9-29.8-30.5C82.1 234 73 222.7 64.2 211c-3.9-5.2-7.5-10-8-10.5-.5-.6-5-7.4-10-15-5-7.7-9.7-14.9-10.5-16-1.3-1.8-1.4-.1-1.2 14.5.3 14.9 1.2 36.2 2 45 .1 1.9.6 7.5.9 12.5.4 4.9.9 10.1 1.1 11.5.2 1.4.7 5 1 8 .3 3 .7 7.1 1 9 .2 1.9.7 5.5 1 8 .5 3.9 4.1 26.2 5 30.9.8 4 6.7 30.2 7.9 35.1 4.3 16.6 13.3 43.2 19.3 57 4.8 10.8 13.5 28.4 17.1 34.4 2.3 3.7 4.2 7 4.2 7.2 0 .2 3.2 4.8 7 10.3 11.6 16.5 24.2 29.8 37.5 39.9l3 2.2-6.5-.6c-3.5-.3-6.7-.7-7-.9-.4-.2-2-.7-3.7-.9-6.7-1.2-21.5-6-33.3-10.8-21.7-8.9-69-33.9-86.3-45.5-2-1.4-3.9-2.4-4.2-2.2-.2.3 0 2.3.5 4.4.5 2.2 2.1 8.9 3.6 15 1.4 6 2.7 12 3 13.1 2.6 13.4 20.2 68.3 26.5 82.9.4 1.1 3.5 8.4 6.9 16.3 9 21.2 23 48.8 32.8 64.2 13.7 21.7 28.3 41.9 39.2 54.5 13.9 16.1 34 35 47.8 44.9 5.2 3.8 6.3 4.9 4 4.1-.7-.2-4.7-.6-8.9-.9-13.4-.9-31.4-5.6-49.9-13.1-11.4-4.6-29.8-13.6-34.3-16.7-1.5-1.1-3.1-1.8-3.7-1.6-.5.2.8 5.2 2.9 11.3C92.5 772 128 819.2 176 851.1c13.3 8.9 37.4 20.8 50.9 25.2l10.4 3.4-5 3.9c-2.7 2.2-8.9 6.6-13.8 9.8-5 3.3-10.2 6.8-11.7 7.7-10.9 7.4-44.8 23.1-62.4 28.9-5.4 1.8-9.2 3.5-8.4 3.8.8.2 2.9 1 4.5 1.7 13 5.4 55.4 19.4 82 27.1 36.1 10.5 76.9 19.8 108.5 24.9 1.9.3 6 1 9 1.5 7.1 1.2 11.1 1.7 18.5 2.6 3.3.3 6.9.8 8 1 1 .2 5.1.6 9 .9 3.8.3 8.4.8 10 1 17.9 2.7 96.6 2.7 112.6 0 1.3-.2 4.9-.6 7.9-.9 3-.4 6.4-.8 7.5-1 1.1-.2 4.5-.7 7.5-1 5.2-.6 7.4-.9 13-2.1 1.4-.3 5.1-1 8.2-1.5 3.2-.6 6.8-1.3 8.1-1.5 1.3-.3 5.9-1.4 10.3-2.5 4.3-1.2 8.7-2.3 9.6-2.5 6.1-1.4 19.2-5.4 30.3-9.2 33.6-11.6 64.7-27.4 91.8-46.6 3.8-2.7 7.4-4.6 8-4.4.7.3 2.1 2.2 3.2 4.3 2 4 3.7 6.8 16 26.6 4 6.5 6.8 12.1 6.6 13.3-.5 3-5.5 15.3-9.9 24.1-5.7 11.6-9.2 17.8-22.6 39.4-23.1 37.5-31.5 53.2-39.1 73-3.1 8.1-7.6 21.3-7.8 23 0 .3-.7 2.5-1.4 5-7.2 23.6-10.8 54.9-10.6 91 .3 69 25 141.8 70.5 208.2 8.2 11.9 27.8 37.1 28.5 36.5.2-.3-.1-2.5-.7-5-.5-2.5-1.2-6.5-1.5-8.9-.3-2.4-1-7-1.4-10.3-.5-3.3-.8-13.2-.6-22 .4-23.3 4.5-37 14.2-47 5.2-5.3 13.8-10.2 14.6-8.2 28.5 69 42.8 131.5 43 187.9.1 7.6.2 13.8.4 13.8 2.1 0 34.6-33.1 46.7-47.5 16.2-19.5 36.3-47.1 45.5-62.6 21.2-35.6 36.5-67.8 48-101.2 7.4-21.5 16.3-56.2 18.7-72.5.2-2 .9-6 1.4-8.7.5-2.8 1.4-9.5 2-15 .6-5.5 1.3-11.1 1.5-12.4 2.4-14 2.4-81.7.1-93.8-.2-1-.7-4.7-1.1-8.3-.6-5.8-1.7-14.1-3.1-22.5-4.1-25.3-13.6-56.4-24.8-81.8-5.7-12.8-24.4-50.2-26.6-53.2-2-2.7-16.8-33.3-19.9-41.2-1.2-3-1-3.6 4-12 2.9-4.8 5.7-9.8 6.4-11 1.1-2.2 1.3-2.1 8.9 3.3 39.3 27.8 90.4 49.7 141.1 60.5 22.3 4.7 38.1 7 66 9.6 17.2 1.6 81.1.9 100.5-1.2 1.9-.2 6.6-.6 10.3-1 3.7-.3 7.8-.8 9-1.1 1.2-.2 4.5-.6 7.2-.9 4.1-.4 24.3-3.4 33-4.9 1.1-.2 3.8-.6 6-1 3.2-.5 28.6-5.6 40.5-8.2 7.7-1.6 46.7-11.9 60.2-15.8 15.6-4.5 65.5-20.8 69.3-22.6 1.1-.5 4.9-2 8.5-3.3l6.5-2.4-4-1.2c-2.2-.7-4.9-1.6-6-2-1.1-.5-8.1-3.2-15.5-6.1-15.4-6-37.3-17-51.1-25.6-9.9-6.3-25.8-17.5-25.8-18.4-.1-.3 4.7-2.1 10.7-4 28-9 61-29.6 85.3-53.2 31.2-30.4 53.9-66.8 69.8-112.2 1.7-4.9 3-9.1 2.8-9.3-.3-.2-6.9 3-14.8 7.1-19.9 10.3-41.1 18.4-55.2 21.2-1 .2-2.6.5-3.5.8-3 .9-7.6 1.6-15.2 2.2-4.1.3-8.2.7-9 1-.8.2-.2-.6 1.4-1.9 30.3-23.1 51.6-45.6 74.9-79 33.6-48 60-107.6 78.7-177.2 2.8-10.5 5.3-20.3 5.6-21.8.2-1.6 1.3-6.5 2.4-11 1-4.5 1.7-8.3 1.5-8.5-.2-.2-4.3 2.1-9.2 5.1-4.8 3-13.3 8-18.8 11.1-5.5 3.1-10.7 6.1-11.5 6.6-.8.5-9.4 4.9-19 9.8-32.8 16.6-57.5 25.6-76.5 27.7-6.7.8-6.7.9 2-5.8 11.9-9.2 28.8-28.8 38.2-44.2 7.1-11.7 8.8-14.9 15.7-29 13.7-27.9 24-58.9 32-96.5 1.4-6.3 2.8-13.8 3.2-16.5.3-2.8.8-5.3 1-5.6.2-.4.6-2.8.9-5.5.3-2.7.8-5.6 1-6.4.2-.8.7-4 1-7 .3-3 .8-6.6 1-8 .8-5 2-15.7 3-28 .3-4.1.8-9.8 1-12.5 1.6-19.1 2.6-61.5 1.4-61.5-.5 0-.9.5-.9 1.1 0 1.7-17.3 27.5-27.8 41.4-15 20-27.7 34.8-46.3 53.9l-11.7 12 1.9-9.5c1-5.1 2.1-11.2 2.4-13.4.3-2.2 1-6.3 1.5-9 .5-2.8 1.2-6.9 1.5-9.2.3-2.3.8-5.5 1-7 3.6-26.5 4.2-31.4 6-50.3.3-3.6.8-8.3 1-10.5.2-2.2.6-8.1 1-13 .3-5 .8-10.8 1-13 .2-2.2.7-9.6 1-16.5.4-6.9.8-15.2 1-18.5.7-10.7 1.7-73 1.2-72.5-.2.3-2.4 4.1-4.7 8.5-6 11.1-9.3 17.3-12 22-9.3 16.5-12.6 22.1-22.3 38.5-9.9 16.6-37.2 59.8-38.7 61-.3.3-1.4 1.8-2.4 3.5-4.8 7.6-35.3 48.5-37.6 50.5-.4.3-1.3 1.5-2.1 2.7-5.2 7.6-27.1 31.7-44.8 49.3-16.4 16.3-21.6 21-35.5 32.3-3.9 3.1-8.2 6.6-9.4 7.7-1.3 1.1-2.7 2-3 2-.4 0-2.3 1.5-4.4 3.3-4.6 4.1-31.6 22.4-39.3 26.6-1.6.9-4.3 2.5-6 3.5-6.4 4.1-8 5-8.1 4.5-.1-.2-1 .3-2 1.2-2.5 2.1-17.8 10.4-65.9 35.4-33.6 17.5-52.2 28.2-74.8 43.1-40.7 27-74.6 56.5-97.7 85.3-1.9 2.4-3.9 4.8-4.5 5.5-2.9 3.3-10.7 13.8-14.1 19.1-2.1 3.3-4.1 6.2-4.4 6.5-.4.3-5.5 8.1-11.4 17.5-21.5 33.7-27.4 38.4-45.1 35.6-18.5-2.8-32.3-16.9-39.3-40.1-3.1-10.3-3.4-15.9-3.7-78-.2-32.2-.6-59.6-.9-61-.2-1.4-.7-6.5-1.1-11.4-.4-5-.8-9.7-1-10.7-.2-.9-.6-3.4-.9-5.5-3.6-22.4-11.8-37.1-25-44.9-3.3-1.9-5.3-3.5-4.5-3.5 2.4 0 10.2-7.8 14.3-14.2 6.5-10.2 12.5-27.6 15.1-43.4 1.5-10 2.6-18.5 3.1-24.9.9-12.3 1.1-24.5.5-24.5-.3 0-1.2 1.9-1.9 4.2-4.7 15.4-18.5 35-34.7 49.6-6.4 5.9-21.8 15.8-32.1 20.7-8.9 4.2-24.6 10.1-29.6 11-1.1.2-2.8.7-3.8 1-1 .3-2.7.8-3.7 1-14.5 2.9-20.9 6.1-29.4 14.6-10.2 10.1-15.8 21.8-17.4 36.4-.4 3.3-.8 6.1-.9 6.2-.1.1-2 .5-4.2.8-8.2 1.2-19.2 3.7-28.3 6.6-35.2 11.3-50.2 30.8-43.5 56.4 1.6 6.4 8 20.5 9.2 20.5.4-.1 2-2.1 3.6-4.6 3.5-5.6 10.6-11.3 19.4-15.6 5.9-2.9 7.7-3.3 14.8-3.3 7.3 0 8.8.4 15.6 3.8 18.6 9.1 30.2 31.4 33.5 64.2.9 8.9 1 28.8.1 34-4.8 29.2-31 57.3-51.4 55.2-10.6-1.1-17.8-7.5-29.8-26.4-28.1-44.7-38.7-58.5-64.6-84.3-12.5-12.6-23.9-23-31.8-29-1.8-1.4-4.5-3.5-6-4.8-9.4-7.9-48.6-34.5-60.2-40.8-1.9-1-3.7-2.2-4-2.5-.4-.4-3.2-2-17.5-9.9-14.4-8-27.1-14.6-51-27-20.6-10.7-32.5-17-36.7-19.7-2.1-1.2-4-2.3-4.3-2.3-.5 0-22.2-13-30.5-18.3-15.7-10-45.1-31.8-51-37.7-.3-.3-3.9-3.4-8-6.9-11.4-9.8-40.1-39-53.1-54.1-14.5-16.9-30.6-37.6-44.1-56.5-15-21.3-46.8-70.2-46.8-72.2 0-.3-1.1-2.1-2.5-3.9-1.4-1.8-2.5-3.5-2.5-3.7 0-.3-3.5-6.5-7.8-13.8-4.3-7.4-9.8-17-12.2-21.4-2.4-4.4-7.3-13.2-10.8-19.5l-6.4-11.5.7 32z"/></svg>